<svg xmlns="http://www.w3.org/2000/svg" id="Layer_1" viewBox="0 0 512 512"><path d="m462.834 53.332-51.278-51.278c-2.734-2.734-7.167-2.734-9.901 0l-39.553 39.553-5.537-5.537c-2.734-2.734-7.167-2.734-9.901 0l-43.257 43.257c-2.734 2.734-2.734 7.168 0 9.902s7.167 2.734 9.901 0l38.306-38.307 62.353 62.354-31.265 31.266c-6.036-2.121-12.517-3.288-19.268-3.288-32.12 0-58.252 26.146-58.252 58.281 0 6.742 1.164 13.215 3.281 19.243l-20.91 20.889-62.328-62.327 70.422-70.422c2.734-2.734 2.734-7.168 0-9.902s-7.167-2.732-9.901 0l-75.374 75.373c-1.313 1.313-2.051 3.094-2.051 4.951 0 1.856.738 3.638 2.051 4.951l8.854 8.854-20.305 20.306c-2.734 2.734-2.734 7.168 0 9.902l44.617 44.617c1.367 1.367 3.159 2.051 4.951 2.051s3.583-.684 4.951-2.051l20.306-20.306 8.854 8.854c1.367 1.367 3.159 2.051 4.951 2.051 1.791 0 3.582-.684 4.948-2.049l22.573-22.551c8.003 11.895 20.276 20.678 34.602 24.162 1.262 6.454 1.911 13.063 1.911 19.713 0 39.327-22.059 74.467-56.84 91.638l-2.915-11.969c-.764-3.137-3.574-5.345-6.803-5.345h-78.208c-3.229 0-6.039 2.208-6.803 5.345l-2.111 8.665c-9.802-5.715-18.585-13.022-25.997-21.635h22.693c3.867 0 7.001-3.135 7.001-7.002v-33.08c0-3.867-3.135-7.002-7.001-7.002h-140.484c-3.867 0-7.001 3.135-7.001 7.002v33.08c0 3.867 3.135 7.002 7.001 7.002h39.941c16.916 39.329 48.452 71.027 87.642 88.167l-4.534 18.614h-59.015c-30.698 0-55.672 24.975-55.672 55.673 0 3.867 3.135 7.002 7.001 7.002h352.856c3.867 0 7.001-3.135 7.001-7.002 0-30.698-24.962-55.673-55.644-55.673h-59.016l-3.899-16.007c64.597-25.193 107.56-87.68 107.56-157.473 0-15.206-2.034-30.219-5.996-44.692 5.917-9.114 9.37-19.966 9.37-31.617 0-20.129-10.259-37.905-25.821-48.38l32.926-32.927c2.734-2.734 2.734-7.168 0-9.902l-5.537-5.537 39.553-39.553c2.735-2.736 2.735-7.17.001-9.904zm-214.346 197.784-34.715-34.716 15.355-15.355 34.716 34.715zm-187.37 58.346h126.482v19.076h-126.482zm48.322 33.08h44.744c10.482 14.945 24.278 27.173 40.283 35.752l-9.401 38.596c-33.066-15.094-59.966-41.575-75.626-74.348zm305.308 155.451h-337.678c3.339-19.654 20.49-34.667 41.081-34.667h64.516 126.51 64.517c20.577 0 37.717 15.013 41.054 34.667zm-223.169-48.671 20.741-85.151h67.206l20.74 85.151zm115.854-29.749-9.306-38.209c18.899-8.734 35.061-22.322 46.98-39.606 13.399-19.432 20.481-42.225 20.481-65.915 0-6.074-.479-12.122-1.41-18.076 14.036-.177 26.886-5.334 36.869-13.787 2.174 10.414 3.29 21.083 3.29 31.863 0 63.381-38.633 120.187-96.904 143.73zm100.277-220.039c0 24.398-19.863 44.248-44.277 44.248-24.399 0-44.249-19.85-44.249-44.248 0-24.415 19.85-44.277 44.249-44.277 24.415 0 44.277 19.862 44.277 44.277zm5.669-106.649-41.377-41.376 34.602-34.603 41.376 41.377zm-289.02 188.883c31.604 0 57.316-25.713 57.316-57.317 0-25.155-25.56-59.585-44.223-84.724-2.706-3.645-5.262-7.087-7.409-10.073-1.316-1.829-3.432-2.913-5.685-2.913-2.253.001-4.369 1.085-5.684 2.915-2.135 2.971-4.677 6.397-7.368 10.025-18.68 25.184-44.263 59.675-44.263 84.77-.001 31.604 25.711 57.317 57.316 57.317zm-1.807-133.746c.611-.823 1.215-1.638 1.809-2.438.606.817 1.223 1.648 1.848 2.489 15.508 20.89 41.464 55.852 41.464 76.377 0 23.884-19.43 43.313-43.313 43.313s-43.313-19.43-43.313-43.313c-.002-20.469 25.981-55.498 41.505-76.428zm240.881 26.68c-13.692 0-24.832 11.14-24.832 24.832s11.139 24.832 24.832 24.832 24.832-11.14 24.832-24.832-11.14-24.832-24.832-24.832zm0 35.66c-5.971 0-10.829-4.857-10.829-10.828s4.858-10.828 10.829-10.828 10.829 4.857 10.829 10.828-4.858 10.828-10.829 10.828z"></path></svg>