<svg xmlns="http://www.w3.org/2000/svg" id="Line" height="512" viewBox="0 0 64 64" width="512"><path d="m37.36133 55.16016h-29.40039v-49.16016h29.05761v8.13574a.99942.99942 0 0 0 1 1h8.13282v17.124a1 1 0 0 0 2 0v-18.11429a.97822.97822 0 0 0 -.31018-.73l-9.11267-9.12245a.99523.99523 0 0 0 -.28907-.1933.8444.8444 0 0 0 -.41796-.0997h-31.06055a.99974.99974 0 0 0 -1 1v51.16016a.99974.99974 0 0 0 1 1h30.40039a1.00016 1.00016 0 0 0 0-2zm1.65722-47.74744 5.7165 5.723h-5.7165z"></path><path d="m29.9502 38.1582a.99974.99974 0 0 0 -1-1h-14.21045a1 1 0 0 0 0 2h14.21045a.99974.99974 0 0 0 1-1z"></path><path d="m14.73975 44.7373a1.00019 1.00019 0 0 0 .00006 2h12.31585a1.00019 1.00019 0 0 0 -.00006-2z"></path><path d="m36.37109 30.5791a.99942.99942 0 0 0 -1-1h-20.63134a1 1 0 1 0 0 2h20.63134a.99942.99942 0 0 0 1-1z"></path><path d="m40.37109 23a.99942.99942 0 0 0 -1-1h-24.63134a1 1 0 0 0 0 2h24.63134a.99942.99942 0 0 0 1-1z"></path><path d="m57.94391 39.10278a1.06048 1.06048 0 0 0 -.70565-.86545l-9.79783-2.93264a.99149.99149 0 0 0 -.57422 0l-9.79785 2.93261a1.00063 1.00063 0 0 0 -.71.88086c-.52944 9.61556 2.50523 17.91815 10.47536 20.82922 8.14173-1.60509 11.82821-11.67038 11.11019-20.8446zm-7.53375 16.97046a11.224 11.224 0 0 1 -3.25653 1.85576 11.31454 11.31454 0 0 1 -3.264-1.8606c-3.83594-3.17969-5.94629-9.31055-5.582-16.11426l8.8457-2.64746 8.83771 2.6452c.36431 6.80337-1.74189 12.93917-5.58088 16.12136z"></path><path d="m49.28809 44.082-3.082 3.083c-.68753-.5783-1.57648-2.13737-2.60155-1.18749a.99962.99962 0 0 0 0 1.414l1.89446 1.89462a.99964.99964 0 0 0 1.41407 0l3.78906-3.79a1.00008 1.00008 0 0 0 -1.41404-1.41413z"></path></svg>