<svg xmlns="http://www.w3.org/2000/svg" xmlns:xlink="http://www.w3.org/1999/xlink" width="512" height="512" x="0" y="0" viewBox="0 0 512 512" style="enable-background:new 0 0 512 512" xml:space="preserve" class=""><g><path fill="#509ac5" d="M293.21 455.37H100.56c-25.53 0-46.29-20.77-46.29-46.29V94.34c0-25.52 20.77-46.29 46.29-46.29h59.12v10h-59.12c-20.01 0-36.29 16.28-36.29 36.29v314.74c0 20.01 16.28 36.29 36.29 36.29h192.65zm84.15-176.87h-10V94.34c0-20.01-16.28-36.29-36.29-36.29h-59.12v-10h59.12c25.52 0 46.29 20.77 46.29 46.29z" opacity="1" data-original="#1a3b70" class=""></path><path fill="#509ac5" d="M305.91 433.36H100.56c-13.39 0-24.28-10.89-24.28-24.28V94.34c0-13.39 10.89-24.28 24.28-24.28h59.12v10h-59.12c-7.88 0-14.28 6.41-14.28 14.28v314.74c0 7.88 6.41 14.28 14.28 14.28h205.35zm49.45-156.1h-10V94.34c0-7.88-6.41-14.28-14.28-14.28h-59.12v-10h59.12c13.39 0 24.28 10.89 24.28 24.28z" opacity="1" data-original="#1a3b70" class=""></path><path fill="#509ac5" d="M258.56 90.65h-85.49c-10.34 0-18.76-8.41-18.76-18.75V56.22c0-10.34 8.41-18.75 18.76-18.75h11.68C187.15 22.48 200.17 11 215.82 11s28.66 11.48 31.07 26.46h11.68c10.34 0 18.76 8.41 18.76 18.75v15.67c-.01 10.36-8.43 18.77-18.77 18.77zm-85.49-43.19c-4.83 0-8.76 3.93-8.76 8.75v15.67c0 4.83 3.93 8.75 8.76 8.75h85.49c4.83 0 8.76-3.93 8.76-8.75V56.22c0-4.83-3.93-8.75-8.76-8.75h-16.28c-2.76 0-5-2.24-5-5 0-11.83-9.63-21.46-21.46-21.46s-21.46 9.63-21.46 21.46c0 2.76-2.24 5-5 5h-16.29z" opacity="1" data-original="#f88125" class=""></path><path fill="#509ac5" fill-rule="evenodd" d="M215.82 32.98c4.05 0 7.34 3.28 7.34 7.34 0 4.05-3.28 7.34-7.34 7.34-4.05 0-7.34-3.28-7.34-7.34s3.28-7.34 7.34-7.34z" clip-rule="evenodd" opacity="1" data-original="#f88125" class=""></path><path fill="#509ac5" d="M279.56 184.71h-81.68c-2.76 0-5-2.24-5-5s2.24-5 5-5h81.68c2.76 0 5 2.24 5 5s-2.24 5-5 5zm41.68-25.6H197.87c-2.76 0-5-2.24-5-5s2.24-5 5-5h123.37c2.76 0 5 2.24 5 5s-2.24 5-5 5zM279.56 274.81h-81.68c-2.76 0-5-2.24-5-5s2.24-5 5-5h81.68c2.76 0 5 2.24 5 5s-2.24 5-5 5zm41.68-25.6H197.87c-2.76 0-5-2.24-5-5s2.24-5 5-5h123.37c2.76 0 5 2.24 5 5s-2.24 5-5 5zM249.08 364.9h-51.2c-2.76 0-5-2.24-5-5s2.24-5 5-5h51.2c2.76 0 5 2.24 5 5s-2.24 5-5 5zm10.69-25.6h-61.9c-2.76 0-5-2.24-5-5s2.24-5 5-5h61.9c2.76 0 5 2.24 5 5s-2.24 5-5 5zM144.92 283.86h-25.36c-7.81 0-14.17-6.36-14.17-14.17v-25.36c0-7.81 6.36-14.17 14.17-14.17h25.36c1.87 0 3.69.36 5.41 1.08 2.55 1.06 3.76 3.98 2.7 6.53s-3.98 3.76-6.53 2.7c-.5-.21-1.03-.31-1.58-.31h-25.36c-2.3 0-4.17 1.87-4.17 4.17v25.36c0 2.3 1.87 4.17 4.17 4.17h25.36c2.3 0 4.17-1.87 4.17-4.17v-2.03c0-2.76 2.24-5 5-5s5 2.24 5 5v2.03c0 7.81-6.35 14.17-14.17 14.17zM144.92 373.95h-25.36c-7.81 0-14.17-6.36-14.17-14.17v-25.36c0-7.81 6.36-14.17 14.17-14.17h25.36c1.87 0 3.69.36 5.41 1.08 2.55 1.06 3.76 3.98 2.7 6.53s-3.98 3.76-6.53 2.7c-.5-.21-1.03-.31-1.58-.31h-25.36c-2.3 0-4.17 1.87-4.17 4.17v25.36c0 2.3 1.87 4.17 4.17 4.17h25.36c2.3 0 4.17-1.87 4.17-4.17v-2.03c0-2.76 2.24-5 5-5s5 2.24 5 5v2.03c0 7.81-6.35 14.17-14.17 14.17z" opacity="1" data-original="#1a3b70" class=""></path><path fill="#509ac5" d="M134.43 269.17c-.27 0-.55-.02-.82-.07a4.976 4.976 0 0 1-3.29-2.09l-10.86-15.69c-1.57-2.27-1-5.39 1.26-6.96 2.27-1.57 5.39-1 6.96 1.26l7.93 11.45 28.14-20.78a4.999 4.999 0 0 1 5.94 8.04L137.4 268.2c-.86.63-1.91.97-2.97.97zM134.43 359.27c-.27 0-.55-.02-.82-.07a4.976 4.976 0 0 1-3.29-2.09l-10.86-15.69c-1.57-2.27-1-5.39 1.26-6.96 2.27-1.57 5.39-1 6.96 1.26l7.93 11.45 28.14-20.78a4.999 4.999 0 0 1 5.94 8.04l-32.28 23.84c-.87.66-1.92 1-2.98 1z" opacity="1" data-original="#f88125" class=""></path><path fill="#509ac5" d="M144.92 193.31h-25.36c-7.81 0-14.17-6.36-14.17-14.17v-25.36c0-7.81 6.36-14.17 14.17-14.17h25.36c1.87 0 3.69.36 5.41 1.08 2.55 1.06 3.76 3.98 2.7 6.53s-3.98 3.76-6.53 2.7c-.5-.21-1.03-.31-1.58-.31h-25.36c-2.3 0-4.17 1.87-4.17 4.17v25.36c0 2.3 1.87 4.17 4.17 4.17h25.36c2.3 0 4.17-1.87 4.17-4.17v-2.03c0-2.76 2.24-5 5-5s5 2.24 5 5v2.03c0 7.81-6.35 14.17-14.17 14.17z" opacity="1" data-original="#1a3b70" class=""></path><path fill="#509ac5" d="M134.43 178.63c-.27 0-.55-.02-.82-.07a4.976 4.976 0 0 1-3.29-2.09l-10.86-15.69c-1.57-2.27-1-5.39 1.26-6.96 2.27-1.57 5.39-1 6.96 1.26l7.93 11.45 28.14-20.78a4.999 4.999 0 0 1 5.94 8.04l-32.28 23.84c-.87.66-1.92 1-2.98 1zM315.27 501c-.22 0-.43-.01-.65-.04-2-.26-3.65-1.71-4.18-3.66l-6.38-23.8-23.8 6.38c-1.95.52-4.03-.18-5.26-1.79s-1.38-3.79-.36-5.54l26.95-46.67 8.66 5-20.91 36.22 16.97-4.55c2.67-.71 5.41.87 6.12 3.54l4.55 16.97 22.19-38.43 8.66 5-28.23 48.87a5 5 0 0 1-4.33 2.5zm90.89 0a5 5 0 0 1-4.33-2.5l-28.21-48.86 8.66-5 22.17 38.41 4.55-16.97a4.997 4.997 0 0 1 6.12-3.54l16.97 4.55-20.51-35.52 8.66-5 26.54 45.97c1.01 1.75.87 3.94-.36 5.54s-3.31 2.3-5.26 1.79l-23.8-6.38-6.38 23.8a4.99 4.99 0 0 1-4.18 3.66c-.2.04-.42.05-.64.05z" opacity="1" data-original="#f88125" class=""></path><path fill="#509ac5" d="M360.74 462.25c-4.95 0-9.89-1.79-13.75-5.38l-4.68-4.36c-2.58-2.4-5.75-3.25-9.19-2.47l-6.34 1.44c-10.24 2.34-20.69-3.71-23.77-13.75l-1.88-6.11c-1.03-3.37-3.36-5.7-6.72-6.74l-6.21-1.92c-9.71-3-15.98-13.89-13.71-23.79l1.43-6.23c.79-3.43-.06-6.61-2.45-9.2l-4.42-4.76c-7.15-7.71-7.13-19.77.03-27.46l4.36-4.68c2.4-2.58 3.25-5.76 2.47-9.19l-1.44-6.34c-2.34-10.25 3.71-20.69 13.75-23.77l6.11-1.88c3.37-1.03 5.7-3.36 6.74-6.72l1.92-6.21c3.1-10.04 13.55-16.06 23.79-13.71l6.23 1.43c3.43.79 6.61-.06 9.2-2.45l4.76-4.42c7.71-7.15 19.77-7.13 27.46.03l4.68 4.36c2.58 2.4 5.76 3.26 9.19 2.47l6.34-1.44c10.25-2.33 20.69 3.71 23.77 13.75l1.88 6.11c1.03 3.37 3.36 5.7 6.72 6.74l6.21 1.92c10.04 3.1 16.06 13.55 13.71 23.79l-1.43 6.23c-.79 3.43.06 6.61 2.45 9.2l4.42 4.77c7.15 7.71 7.13 19.77-.03 27.46l-4.36 4.68c-2.4 2.58-3.26 5.76-2.47 9.19l1.44 6.34c2.34 10.25-3.71 20.69-13.75 23.77l-6.11 1.88c-3.37 1.03-5.7 3.36-6.74 6.72l-1.92 6.21c-3.1 10.04-13.55 16.06-23.79 13.71l-6.23-1.43c-3.43-.79-6.61.06-9.2 2.45l-4.77 4.42c-3.83 3.56-8.77 5.34-13.7 5.34zm-25.24-22.48c5.02 0 9.82 1.88 13.63 5.43l4.68 4.36c3.94 3.67 9.89 3.68 13.85.01l4.77-4.42c4.98-4.62 11.62-6.39 18.24-4.87l6.23 1.43c5.25 1.21 10.41-1.76 12-6.91l1.92-6.21c2-6.48 6.87-11.34 13.36-13.33l6.12-1.88c5.15-1.58 8.13-6.73 6.94-11.99l-1.44-6.34c-1.51-6.62.28-13.26 4.9-18.23l4.36-4.68c3.67-3.94 3.68-9.9.01-13.85l-4.42-4.77c-4.62-4.97-6.39-11.62-4.87-18.24l1.43-6.23c1.21-5.25-1.76-10.41-6.91-12l-6.21-1.92c-6.48-2-11.34-6.87-13.33-13.36l-1.88-6.11c-1.58-5.15-6.74-8.14-11.99-6.94l-6.34 1.44c-6.62 1.51-13.26-.28-18.23-4.9l-4.68-4.36c-3.94-3.67-9.9-3.68-13.85-.01l-4.76 4.42c-5.05 4.68-11.53 6.41-18.24 4.87l-6.23-1.43c-5.25-1.21-10.41 1.77-12 6.91l-1.92 6.21c-2 6.48-6.87 11.34-13.36 13.33l-6.11 1.88c-5.15 1.58-8.13 6.73-6.94 11.99l1.44 6.34c1.51 6.62-.28 13.26-4.9 18.23l-4.36 4.68c-3.67 3.94-3.68 9.9-.01 13.85l4.42 4.76c4.68 5.05 6.41 11.53 4.87 18.24l-1.43 6.23c-1.19 5.19 2.74 10.71 6.91 12l6.21 1.92c6.48 2 11.34 6.87 13.33 13.36l1.88 6.12c1.58 5.15 6.73 8.13 11.99 6.94l6.34-1.44c1.51-.36 3.06-.53 4.58-.53z" opacity="1" data-original="#f88125" class=""></path><path fill="#509ac5" d="M360.72 431.61c-36.6 0-66.38-29.78-66.38-66.38s29.78-66.38 66.38-66.38 66.38 29.78 66.38 66.38c-.01 36.61-29.78 66.38-66.38 66.38zm0-122.75c-31.09 0-56.38 25.29-56.38 56.38s25.29 56.38 56.38 56.38 56.38-25.29 56.38-56.38-25.3-56.38-56.38-56.38z" opacity="1" data-original="#f88125" class=""></path><path fill="#509ac5" d="M345.6 403.82a14.257 14.257 0 0 1-11.34-5.63l-20.61-27.14c-4.74-6.25-3.51-15.19 2.74-19.93s15.19-3.51 19.93 2.73l10.89 14.34 33.7-32.68c2.72-2.65 6.29-4.09 10.12-4.03 3.8.05 7.36 1.58 10.01 4.31s4.08 6.32 4.03 10.13c-.05 3.8-1.58 7.36-4.31 10.01l-45.23 43.87a14.283 14.283 0 0 1-9.93 4.02zM321.61 365l20.62 27.14c.75.98 1.83 1.57 3.05 1.67 1.24.1 2.39-.33 3.28-1.18l45.23-43.87c1.67-1.63 1.71-4.32.08-5.99a4.197 4.197 0 0 0-2.98-1.28c-1.12.01-2.2.41-3.02 1.2l-37.75 36.61c-1.03 1-2.42 1.51-3.86 1.4a4.978 4.978 0 0 1-3.6-1.96l-14.31-18.84a4.224 4.224 0 0 0-5.92-.81 4.213 4.213 0 0 0-.82 5.91z" opacity="1" data-original="#1a3b70" class=""></path></g></svg>