<svg xmlns="http://www.w3.org/2000/svg" id="Layer_1" height="512" viewBox="0 0 512 512" width="512"><path d="m37 245.6 15.5-15.5c1.9-1.9 5-1.9 6.9 0l16.3 16.3 54.9-54.9c1.9-1.9 5-1.9 6.9 0l15.5 15.5c1.9 1.9 1.9 5 0 6.9l-73.9 73.9c-1.9 1.9-5 1.9-6.9 0l-35.2-35.3c-1.9-1.9-1.9-5 0-6.9zm19-5.1-8.6 8.6 28.3 28.3 67-67-8.6-8.6-54.9 54.9c-1.9 1.9-5 1.9-6.9 0zm39-89.9c19.6 0 37.7 6.3 52.4 17.1 3.7-27.9 14.3-53.9 33.6-74.6-11.4 4.1-23.9 10.5-37.4 19.9l3.5 5.4c2 3.1-.1 7.3-3.8 7.5l-45.3 3.2c-3.5.3-6.3-3.3-4.8-6.8l17.3-44.3c1.4-3.7 6.3-4.3 8.7-.9l3.5 4.5c18.6-12.4 40.3-18.5 62.6-19.1 10.7-.3 21.6.7 32.4 2.9 12.9-6.7 27.7-12 44.6-15.5 17.7-3.8 40.6-6 62.2-5.3 93.2 3.1 138.7 73.9 138.7 162.4 0 2.3 0 4.8-.1 7.7 5.7 11.7 15.7 27.7 25.7 43.6 5.1 8.1 10.2 16.2 14.4 23.2 7.9 13-1.5 30.1-16.9 30.8l-33.4 1.6-.6 46.5c-.2 12.2-4.9 22.9-13.7 31.5s-19.5 13.1-31.8 13.1h-30.6c-16.6 0-30.9 11.4-34.7 27.6l-7.5 31.2c-.5 2.2-2.6 3.7-4.8 3.7h-146.1c-3.1 0-5.7-2.9-4.6-6.5 3.9-16.5 6.4-28.1 8.8-39.7 2.4-11.5 4.8-23 9-40.4l2.6-13c-20.7-.2-41.8-4.6-61.9-13.2-4.1-1.8-4-7.8.5-9.2 8.4-2.6 29.2 6.9 62.1-1.1-1.8-14.9-8.7-24.8-16.8-36.5-4.1-6-8.6-12.3-12.9-20-30.7 47.5-97.6 54.9-137.8 14.7-34.8-34.8-34.8-91.1 0-125.9 16.1-16.1 38.4-26.1 62.9-26.1zm61.5 24.6c27.7 26.4 35.6 67.7 19 102.6 4.9 9.8 10.3 17.5 15.2 24.6 8.6 12.4 16 23.1 18.3 39.3 16.8-5.6 35.7-16.1 55.7-34.8l-5-5.2c-2.6-2.8-1.2-7.4 2.5-8.2l47.5-10.3c3.5-.7 6.7 2.4 5.8 6.1l-11.6 49.4c-.9 3.7-5.6 5.2-8.5 2.1l-5.6-5.9c-22.5 20.4-51.1 31.2-81 32.9-.7 5.2-1.6 9.9-3 15.5-7.5 31.3-9.3 44.1-16.5 74.6h136.1l6.6-27.4c4.9-20.6 23.1-35.1 44.2-35.1h30.6c9.8 0 18-3.5 24.9-10.3 7-6.8 10.6-15 10.8-24.7.2-11.5.3-18.5.3-25.5.1-6.9.1-13.9.3-25.2-.1-2.7 1.9-5 4.5-5.2l38.1-1.9c7.9-.4 13.1-9.1 9-16-12.5-20.7-32.7-50.8-41.1-68.7-.3-.7-.5-1.4-.5-2.2 2.9-89.2-40.1-161.4-135-161.4-30.3 0-59.9 4.2-85.5 15 9.4 2.9 18.6 6.7 27.4 11.3 4.2 2.2 3.1 8.4-1.5 9.2-3 .5-6.9-.2-12.1-1.2-9.8-1.8-25.1-4.6-45-1-13.6 10.8-23.8 23.7-31.1 38-7.8 15.1-12.2 32-13.8 49.6zm-5.4 8.4c-31-30.9-81.1-30.9-112.1 0-31 31-31 81.1 0 112.1 30.9 31 81.1 31 112.1 0 30.9-31 30.9-81.2 0-112.1zm34.4-111.3c-22.1.6-43.3 6.9-61.1 20-2.2 1.6-5.2 1.1-6.8-1l-1.2-1.6-11.4 29.1 29.5-2.1-1.5-2.4c-1.4-2.2-.9-5 1.2-6.6 35-25.7 64.1-31.7 85.6-31.7-11.4-2.7-22.9-4-34.3-3.7zm34.7 284.3c25.2-3.7 47.8-14.3 66.4-32.3 2-1.8 5.1-1.8 6.9.2l2.9 3.1 7.8-33.2-31.4 6.8 2.4 2.5c1.8 2 1.8 5-.1 6.9-35.2 34.3-67.4 44.4-91.9 46.5 12.5 1.4 24.9 1.3 37-.5zm93.8-277.5h28.4c2.7 0 4.9 2.2 4.9 4.9v14.5c8 2 15.7 5.2 22.7 9.4l10.3-10.3c1.9-1.9 5-1.9 6.9 0l20.1 20c1.9 1.9 1.9 5 0 6.9l-10.3 10.4c4.3 7 7.5 14.7 9.4 22.8h14.6c2.7 0 4.9 2.2 4.9 4.9v28.3c0 2.7-2.2 4.9-4.9 4.9h-14.5c-2 8.1-5.2 15.7-9.4 22.7l10.3 10.3c1.9 1.9 1.9 5 0 6.9l-20.1 20.1c-1.9 1.9-5 1.9-6.9 0l-10.4-10.3c-7 4.3-14.7 7.5-22.8 9.4v14.5c0 2.7-2.2 4.9-4.9 4.9h-28.3c-2.7 0-4.9-2.2-4.9-4.9v-14.4c-8.1-2-15.7-5.2-22.8-9.4l-10.3 10.3c-1.9 1.9-5 1.9-6.9 0l-20-20.1c-1.9-1.9-1.9-5 0-6.9l10.3-10.3c-2.1-3.5-4-7.2-5.6-11-1.6-3.8-2.9-7.7-3.8-11.7h-14.5c-2.8 0-5-2.2-4.9-5.3v-27.9c0-2.7 2.2-4.9 4.9-4.9h14.5c.9-3.7 2.4-8.3 3.8-11.7 1.6-3.8 3.5-7.5 5.6-11l-10.3-10.3c-1.9-1.9-1.9-5 0-6.9l20-20c1.9-1.9 5-1.9 6.9 0l10.3 10.3c3.5-2.1 7.2-4 11-5.6 3.8-1.6 7.7-2.9 11.7-3.8v-14.8c.1-2.7 2.3-4.9 5-4.9zm23.5 9.8h-18.6v13.6c0 2.3-1.6 4.4-4 4.8-4.8.9-9.4 2.3-13.8 4.1-3.9 1.7-9 4.2-12.4 6.7-1.9 1.5-4.7 1.4-6.5-.4l-9.6-9.6-13.1 13.1 9.6 9.6c1.6 1.6 1.9 4.3.6 6.2-2.7 3.9-5 8.2-6.8 12.7-1.8 4.3-3.1 8.8-4.1 13.5-.3 2.4-2.4 4.3-4.8 4.3h-13.6v18.5h13.6c2.3 0 4.4 1.6 4.8 4 .9 4.8 2.3 9.4 4.1 13.8 1.7 3.9 4.2 9 6.7 12.4 1.5 1.9 1.4 4.7-.4 6.5l-9.6 9.6 13.1 13.1 9.6-9.6c1.6-1.6 4.3-1.9 6.2-.6 4 2.7 8.2 5 12.7 6.9 4.3 1.8 8.8 3.1 13.5 4.1 2.4.3 4.3 2.4 4.3 4.9v13.5h18.6v-13.3c-.1-2.4 1.5-4.6 4-5.1 4.8-.9 9.4-2.3 13.8-4.1s8.5-4.1 12.4-6.7c1.9-1.5 4.7-1.4 6.5.4l9.6 9.6 13.1-13.1-9.6-9.6c-1.6-1.6-1.9-4.2-.6-6.2 2.7-4 5-8.2 6.9-12.7 1.8-4.3 3.1-8.8 4.1-13.5.3-2.4 2.4-4.3 4.9-4.3h13.5v-18.5h-13.5c-2.3 0-4.4-1.6-4.8-4-.9-4.8-2.3-9.4-4.1-13.8s-4.1-8.5-6.7-12.4c-1.5-1.9-1.4-4.7.4-6.5l9.6-9.6-13.1-13.1-9.6 9.6c-1.6 1.6-4.2 1.9-6.2.6-4-2.7-8.2-5-12.7-6.8-4.3-1.8-8.8-3.1-13.5-4.1-2.4-.3-4.3-2.4-4.3-4.9v-13.6zm-9.3 35.7c28.8 0 52.1 23.3 52.2 52.2 0 28.8-23.4 52.2-52.2 52.2-28.9 0-52.2-23.4-52.2-52.2 0-28.9 23.4-52.2 52.2-52.2zm30 22.2c-16.6-16.6-43.4-16.6-59.9 0-16.6 16.6-16.6 43.4 0 59.9 7.7 7.7 18.3 12.4 30 12.4 23.4 0 42.3-19 42.3-42.3 0-11.7-4.8-22.3-12.4-30z"></path></svg>